<?xml version="1.0" standalone="no"?>
<!DOCTYPE svg PUBLIC "-//W3C//DTD SVG 20010904//EN"
 "http://www.w3.org/TR/2001/REC-SVG-20010904/DTD/svg10.dtd">
<svg version="1.0" xmlns="http://www.w3.org/2000/svg"
 width="396.000000pt" height="396.000000pt" viewBox="0 0 396.000000 396.000000"
 preserveAspectRatio="xMidYMid meet">
<metadata>
Created by potrace 1.11, written by Peter Selinger 2001-2013
</metadata>
<g transform="translate(0.000000,396.000000) scale(0.100000,-0.100000)"
fill="#000000" stroke="none">
<path d="M1695 3824 c-138 -21 -277 -60 -415 -115 -585 -234 -1005 -741 -1132
-1369 -20 -102 -23 -143 -23 -360 0 -217 3 -258 23 -360 153 -753 720 -1319
1474 -1472 100 -20 142 -23 358 -23 216 0 258 3 358 23 754 153 1321 720 1474
1472 20 102 23 143 23 360 0 217 -3 258 -23 360 -158 781 -773 1368 -1555
1484 -130 20 -436 20 -562 0z"/>
</g>
</svg>
